<svg width="33" height="38" viewBox="0 0 33 38" fill="none" xmlns="http://www.w3.org/2000/svg">
<path d="M27.8154 6.15606C30.5149 8.04626 31.1733 11.7803 29.2831 14.4798L17.7802 30.9076C15.2599 34.507 10.2812 35.3848 6.68185 32.8646C3.08253 30.3443 2.20465 25.3656 4.72492 21.7662L16.2278 5.33841L17.8597 6.48108L6.35683 22.9089C4.46662 25.6084 5.12503 29.3424 7.82453 31.2326C10.524 33.1229 14.258 32.4644 16.1483 29.765L27.6512 13.3371C28.9113 11.5374 28.4724 9.0481 26.6727 7.78796C24.873 6.52782 22.3837 6.96676 21.1235 8.76643L11.906 21.9305C11.2759 22.8303 11.4954 24.075 12.3952 24.705C13.295 25.3351 14.5397 25.1156 15.1698 24.2158L24.3873 11.0518L26.0192 12.1944L16.8017 25.3585C15.5416 27.1581 13.0522 27.5971 11.2525 26.3369C9.45288 25.0768 9.01394 22.5874 10.2741 20.7878L19.4916 7.62375C21.3818 4.92426 25.1159 4.26585 27.8154 6.15606Z" fill="#87B9BE"/>
</svg>
