<svg width="12" height="8" viewBox="0 0 12 8" fill="none" xmlns="http://www.w3.org/2000/svg">
<path d="M11.0447 0.00375366H1.87804C1.37247 0.00375366 0.961365 0.402212 0.961365 0.892232V7.11154C0.961365 7.60154 1.37247 8 1.87804 8H11.0447C11.5503 8 11.9614 7.60154 11.9614 7.11152V0.892232C11.9614 0.402212 11.5503 0.00375366 11.0447 0.00375366ZM1.87804 0.447982H11.0447C11.0785 0.447982 11.1082 0.459914 11.1399 0.466661C10.3463 1.17064 7.71483 3.50396 6.79394 4.30815C6.72188 4.37106 6.60574 4.4461 6.46139 4.4461C6.31703 4.4461 6.20089 4.37106 6.12859 4.30794C5.20779 3.50388 2.57615 1.17043 1.78267 0.466703C1.81442 0.459956 1.84424 0.447982 1.87804 0.447982ZM1.41969 7.11152V0.892232C1.41969 0.848711 1.43323 0.809229 1.44534 0.769456C2.05275 1.30829 3.88889 2.93635 5.07947 3.98572C3.89276 4.97373 2.05614 6.66144 1.4439 7.2273C1.4331 7.18952 1.41969 7.15258 1.41969 7.11152ZM11.0447 7.55577H1.87804C1.84143 7.55577 1.80888 7.5434 1.7747 7.53548C2.40735 6.95093 4.25565 5.25352 5.4215 4.28682C5.57348 4.42045 5.71231 4.54229 5.82175 4.63787C6.01064 4.80316 6.23174 4.89035 6.46136 4.89035C6.69099 4.89035 6.91209 4.80314 7.10074 4.63808C7.21022 4.54245 7.34916 4.42051 7.50123 4.28682C8.66714 5.25341 10.5152 6.9507 11.148 7.53548C11.1138 7.5434 11.0813 7.55577 11.0447 7.55577ZM11.503 7.11152C11.503 7.15256 11.4896 7.18952 11.4788 7.2273C10.8664 6.66115 9.02997 4.97363 7.84328 3.98574C9.0339 2.93638 10.8698 1.30845 11.4774 0.769415C11.4895 0.809188 11.503 0.84869 11.503 0.892211V7.11152Z" fill="#ADADAD"/>
</svg>
