<svg width="11" height="15" viewBox="0 0 11 15" fill="none" xmlns="http://www.w3.org/2000/svg">
<path fill-rule="evenodd" clip-rule="evenodd" d="M2.7 6.14717H8.3V4.35284C8.3 2.80645 7.0464 1.55284 5.5 1.55284C3.9536 1.55284 2.7 2.80645 2.7 4.35284V6.14717ZM2 6.84717C1.28203 6.84717 0.7 7.4292 0.7 8.14717V12.1472C0.7 12.8651 1.28203 13.4472 2 13.4472H9C9.71797 13.4472 10.3 12.8651 10.3 12.1472V8.14717C10.3 7.4292 9.71797 6.84717 9 6.84717V6.85284H8.3H2.7H2V6.84717ZM9 6.14717V4.35284C9 2.41985 7.433 0.852844 5.5 0.852844C3.567 0.852844 2 2.41985 2 4.35284V6.14717C0.895431 6.14717 0 7.0426 0 8.14717V12.1472C0 13.2517 0.895431 14.1472 2 14.1472H9C10.1046 14.1472 11 13.2517 11 12.1472V8.14717C11 7.0426 10.1046 6.14717 9 6.14717Z" fill="#ADADAD"/>
</svg>
