<svg width="11" height="13" viewBox="0 0 11 13" fill="none" xmlns="http://www.w3.org/2000/svg">
<path fill-rule="evenodd" clip-rule="evenodd" d="M7.62131 5.34483C7.01253 5.95361 6.26767 6.26217 5.40737 6.26217C4.54726 6.26217 3.8024 5.95351 3.19352 5.34493C2.58484 4.73625 2.27618 3.99139 2.27618 3.13098C2.27618 2.27078 2.58484 1.52592 3.19352 0.917237C3.8022 0.308556 4.54696 0 5.40737 0C6.26757 0 7.01243 0.308556 7.62121 0.917138C8.22999 1.52602 8.53855 2.27088 8.53855 3.13098C8.53855 3.99139 8.22989 4.73615 7.62131 5.34483ZM5.40737 0.761818C4.74721 0.761818 4.19933 0.988846 3.73228 1.4559C3.26513 1.92304 3.038 2.47103 3.038 3.13098C3.038 3.79114 3.26513 4.33912 3.73228 4.80617C4.19953 5.27322 4.74741 5.50035 5.40737 5.50035C6.06742 5.50035 6.61541 5.27332 7.08255 4.80617C7.5496 4.33902 7.77673 3.79114 7.77673 3.13098C7.77673 2.47103 7.5496 1.92304 7.08255 1.4559C6.61541 0.988846 6.06742 0.761818 5.40737 0.761818ZM10.7808 9.17494C10.833 9.46673 10.8685 9.74305 10.8861 9.99636C10.9035 10.2439 10.9123 10.5023 10.9124 10.7642C10.9124 11.443 10.6967 11.9926 10.2712 12.3975C9.85093 12.7973 9.29511 13 8.61919 13H2.3596C1.68347 13 1.12766 12.7973 0.70752 12.3975C0.282128 11.9923 0.0664062 11.4429 0.0664062 10.7643C0.0664062 10.5033 0.0751343 10.2449 0.092392 9.99666C0.109947 9.74275 0.145355 9.46633 0.197723 9.17494C0.250488 8.88096 0.318428 8.60315 0.399658 8.34915C0.483765 8.08641 0.598023 7.82725 0.739159 7.5788C0.885552 7.32102 1.05773 7.09657 1.25094 6.9117C1.45317 6.71819 1.70063 6.56277 1.98647 6.44961C2.27143 6.33674 2.58722 6.27951 2.92523 6.27951C3.05794 6.27951 3.18628 6.33396 3.43394 6.49533C3.58876 6.5962 3.76729 6.71125 3.96456 6.83731C4.13456 6.94582 4.36536 7.04748 4.65001 7.13942C4.92822 7.22938 5.21049 7.275 5.489 7.275C5.7677 7.275 6.04997 7.22938 6.32798 7.13942C6.61293 7.04738 6.84363 6.94572 7.01392 6.83721C7.21308 6.70996 7.39151 6.59491 7.54405 6.49543C7.79191 6.33406 7.92025 6.27961 8.05295 6.27961C8.39087 6.27961 8.70676 6.33674 8.99181 6.44951C9.27785 6.56287 9.52522 6.71829 9.72725 6.9116C9.92046 7.09637 10.0926 7.32092 10.2391 7.5788C10.3805 7.82725 10.4946 8.08651 10.5787 8.34905C10.6601 8.60305 10.728 8.88096 10.7808 9.17494ZM8.61909 12.2382C9.09972 12.2382 9.46828 12.1097 9.7459 11.8455C10.0182 11.5865 10.1505 11.2328 10.1506 10.7643C10.1505 10.52 10.1423 10.2796 10.1262 10.0496V10.0494C10.1105 9.82329 10.0784 9.57434 10.0309 9.30943C9.98413 9.04848 9.92432 8.8035 9.85321 8.58133C9.78517 8.36878 9.69214 8.15802 9.57679 7.95519C9.4668 7.76159 9.34024 7.59566 9.20059 7.46206C9.06997 7.33709 8.90533 7.23464 8.71142 7.15787C8.53191 7.08685 8.33027 7.04797 8.11127 7.04212C8.08459 7.05631 8.03709 7.08348 7.96012 7.13357C7.80351 7.23573 7.62806 7.34879 7.42384 7.47932C7.1986 7.62293 6.90889 7.75237 6.56235 7.86434C6.20856 7.9787 5.84744 8.03682 5.48909 8.03682C5.13075 8.03682 4.76973 7.9787 4.41574 7.86424C4.0695 7.75247 3.77969 7.62293 3.55474 7.47952C3.35519 7.35207 3.17468 7.23563 3.01807 7.13357C2.9411 7.08338 2.8936 7.05631 2.86691 7.04212C2.64802 7.04797 2.44638 7.08685 2.26696 7.15787C2.07296 7.23464 1.90832 7.33699 1.7777 7.46206C1.63805 7.59576 1.51149 7.76169 1.4015 7.95509C1.28625 8.15802 1.19331 8.36868 1.12518 8.58143C1.05416 8.8033 0.994454 9.04838 0.947541 9.30953C0.900033 9.57395 0.867997 9.82279 0.852326 10.0493C0.836259 10.2802 0.828225 10.5207 0.828225 10.7643C0.828225 11.2327 0.960534 11.5865 1.23279 11.8456C1.5103 12.1097 1.87886 12.2382 2.3596 12.2382H8.61909Z" fill="#ADADAD"/>
</svg>
