<svg width="47" height="50" viewBox="0 0 47 50" fill="none" xmlns="http://www.w3.org/2000/svg">
<path d="M30.3013 28.6575C27.1276 34.1546 23.4152 38.6078 20.0042 41.371C18.2966 42.7543 16.6963 43.6881 15.3042 44.1348C13.9123 44.5814 12.8101 44.5188 11.991 44.0458C11.1718 43.5729 10.5665 42.6497 10.2573 41.221C9.94808 39.792 9.95666 37.9392 10.3008 35.7687C10.9883 31.4331 12.9888 25.9915 16.1625 20.4944C19.3363 14.9973 23.0486 10.5441 26.4596 7.7809C28.1672 6.3976 29.7675 5.46375 31.1596 5.01706C32.5516 4.57043 33.6537 4.6331 34.4729 5.10604C35.292 5.57899 35.8974 6.50214 36.2065 7.93091C36.5158 9.35984 36.5072 11.2127 36.163 13.3831C35.4755 17.7188 33.4751 23.1604 30.3013 28.6575Z" stroke="#16DAF0" stroke-width="1.5"/>
<path d="M16.1625 28.6575C12.9887 23.1604 10.9883 17.7188 10.3008 13.3831C9.95665 11.2127 9.94806 9.35984 10.2573 7.93091C10.5664 6.50214 11.1718 5.57899 11.9909 5.10604C12.8101 4.6331 13.9123 4.57043 15.3042 5.01707C16.6963 5.46375 18.2966 6.3976 20.0042 7.7809C23.4152 10.5441 27.1275 14.9973 30.3013 20.4944C33.4751 25.9915 35.4755 31.4331 36.163 35.7687C36.5071 37.9392 36.5157 39.792 36.2065 41.221C35.8974 42.6497 35.292 43.5729 34.4728 44.0458C33.6537 44.5188 32.5515 44.5814 31.1596 44.1348C29.7675 43.6881 28.1672 42.7543 26.4596 41.371C23.0486 38.6078 19.3362 34.1546 16.1625 28.6575Z" stroke="#16DAF0" stroke-width="1.5"/>
<path d="M23.2319 32.739C16.8844 32.739 11.1716 31.7506 7.07312 30.1782C5.02134 29.391 3.41246 28.472 2.32957 27.4898C1.24681 26.5077 0.750008 25.5218 0.750008 24.576C0.750008 23.6301 1.24681 22.6442 2.32957 21.6621C3.41246 20.6799 5.02134 19.7609 7.07312 18.9737C11.1716 17.4013 16.8844 16.4129 23.2319 16.4129C29.5794 16.4129 35.2922 17.4013 39.3907 18.9737C41.4425 19.7609 43.0514 20.6799 44.1342 21.6621C45.217 22.6442 45.7138 23.6301 45.7138 24.576C45.7138 25.5218 45.217 26.5077 44.1342 27.4898C43.0514 28.472 41.4425 29.391 39.3907 30.1782C35.2922 31.7506 29.5794 32.739 23.2319 32.739Z" stroke="#16DAF0" stroke-width="1.5"/>
<circle cx="22.9542" cy="24.6277" r="4" fill="#16DAF0"/>
</svg>