<svg width="32" height="32" viewBox="0 0 32 32" fill="none" xmlns="http://www.w3.org/2000/svg">
<path d="M31.1551 0.685807C30.8982 0.428832 30.5127 0.349814 30.1756 0.48472L0.990392 12.1587C0.656458 12.2922 0.432847 12.6102 0.42001 12.9697C0.407234 13.3292 0.607776 13.6622 0.931356 13.8192L12.44 19.4008L18.0216 30.9094C18.1738 31.2233 18.4917 31.4213 18.8386 31.4213C18.8494 31.4213 18.8602 31.4212 18.8711 31.4207C19.2304 31.408 19.5486 31.1844 19.6821 30.8504L31.3562 1.66539C31.4911 1.328 31.412 0.942721 31.1551 0.685807ZM3.5737 13.0818L26.7417 3.81467L12.9346 17.6217L3.5737 13.0818ZM18.759 28.2671L14.219 18.9061L28.0263 5.09906L18.759 28.2671Z" fill="#48ACB7"/>
</svg>
